<mxfile host="65bd71144e">
    <diagram id="BIriDt9LOFF25zejwVzs" name="Page-1">
        <mxGraphModel dx="1753" dy="403" grid="1" gridSize="10" guides="1" tooltips="1" connect="1" arrows="1" fold="1" page="1" pageScale="1" pageWidth="850" pageHeight="1100" math="0" shadow="0">
            <root>
                <mxCell id="0"/>
                <mxCell id="1" parent="0"/>
                <mxCell id="3" value="" style="endArrow=classic;startArrow=classic;html=1;" edge="1" parent="1">
                    <mxGeometry width="50" height="50" relative="1" as="geometry">
                        <mxPoint x="40" y="440" as="sourcePoint"/>
                        <mxPoint x="830" y="440" as="targetPoint"/>
                    </mxGeometry>
                </mxCell>
                <mxCell id="5" value="Github" style="rounded=0;whiteSpace=wrap;html=1;fillColor=#d5e8d4;strokeColor=#82b366;fontSize=11;" vertex="1" parent="1">
                    <mxGeometry x="50" y="400" width="50" height="20" as="geometry"/>
                </mxCell>
                <mxCell id="6" value="OpenShift Cluster" style="rounded=0;whiteSpace=wrap;html=1;fillColor=#f8cecc;strokeColor=#b85450;fontSize=11;" vertex="1" parent="1">
                    <mxGeometry x="130" y="380" width="60" height="40" as="geometry"/>
                </mxCell>
                <mxCell id="7" value="kustomize" style="rounded=0;whiteSpace=wrap;html=1;fontSize=11;" vertex="1" parent="1">
                    <mxGeometry x="220" y="380" width="70" height="20" as="geometry"/>
                </mxCell>
                <mxCell id="8" value="Sealed secrets" style="rounded=0;whiteSpace=wrap;html=1;fontSize=11;" vertex="1" parent="1">
                    <mxGeometry x="220" y="330" width="70" height="40" as="geometry"/>
                </mxCell>
                <mxCell id="12" value="OpenShift GitOps" style="rounded=0;whiteSpace=wrap;html=1;fillColor=#f8cecc;strokeColor=#b85450;fontSize=11;" vertex="1" parent="1">
                    <mxGeometry x="320" y="280" width="60" height="40" as="geometry"/>
                </mxCell>
                <mxCell id="13" value="OpenShift Pipelines" style="rounded=0;whiteSpace=wrap;html=1;fillColor=#f8cecc;strokeColor=#b85450;fontSize=11;" vertex="1" parent="1">
                    <mxGeometry x="400" y="280" width="60" height="40" as="geometry"/>
                </mxCell>
                <mxCell id="14" value="Image Regsitry" style="rounded=0;whiteSpace=wrap;html=1;fillColor=#d5e8d4;strokeColor=#82b366;fontSize=11;" vertex="1" parent="1">
                    <mxGeometry x="320" y="350" width="60" height="40" as="geometry"/>
                </mxCell>
                <mxCell id="15" value="Kibana" style="rounded=0;whiteSpace=wrap;html=1;fontSize=11;" vertex="1" parent="1">
                    <mxGeometry x="670" y="310" width="70" height="40" as="geometry"/>
                </mxCell>
                <mxCell id="16" value="Prometheus" style="rounded=0;whiteSpace=wrap;html=1;fontSize=11;" vertex="1" parent="1">
                    <mxGeometry x="670" y="360" width="70" height="40" as="geometry"/>
                </mxCell>
                <mxCell id="17" value="Grafana" style="rounded=0;whiteSpace=wrap;html=1;fontSize=11;" vertex="1" parent="1">
                    <mxGeometry x="750" y="310" width="70" height="40" as="geometry"/>
                </mxCell>
                <mxCell id="18" value="Event-driven applications" style="rounded=0;whiteSpace=wrap;html=1;fontSize=11;fillColor=#dae8fc;strokeColor=none;" vertex="1" parent="1">
                    <mxGeometry x="470" y="90" width="150" height="40" as="geometry"/>
                </mxCell>
                <mxCell id="19" value="Event backbone" style="rounded=0;whiteSpace=wrap;html=1;fontSize=11;fillColor=#dae8fc;strokeColor=none;" vertex="1" parent="1">
                    <mxGeometry x="470" y="180" width="70" height="40" as="geometry"/>
                </mxCell>
                <mxCell id="20" value="Queue Manager" style="rounded=0;whiteSpace=wrap;html=1;fontSize=11;fillColor=#dae8fc;strokeColor=none;" vertex="1" parent="1">
                    <mxGeometry x="470" y="230" width="70" height="40" as="geometry"/>
                </mxCell>
                <mxCell id="21" value="Event end-point mgr" style="rounded=0;whiteSpace=wrap;html=1;fontSize=11;fillColor=#dae8fc;strokeColor=none;" vertex="1" parent="1">
                    <mxGeometry x="470" y="280" width="70" height="40" as="geometry"/>
                </mxCell>
                <mxCell id="22" value="Schema Registry" style="rounded=0;whiteSpace=wrap;html=1;fontSize=11;fillColor=#dae8fc;strokeColor=none;" vertex="1" parent="1">
                    <mxGeometry x="550" y="180" width="70" height="40" as="geometry"/>
                </mxCell>
                <mxCell id="23" value="Connector" style="rounded=0;whiteSpace=wrap;html=1;fontSize=11;fillColor=#dae8fc;strokeColor=none;" vertex="1" parent="1">
                    <mxGeometry x="550" y="230" width="70" height="40" as="geometry"/>
                </mxCell>
                <mxCell id="24" value="" style="endArrow=classic;startArrow=classic;html=1;" edge="1" parent="1">
                    <mxGeometry width="50" height="50" relative="1" as="geometry">
                        <mxPoint x="30" y="440" as="sourcePoint"/>
                        <mxPoint x="30" y="70" as="targetPoint"/>
                    </mxGeometry>
                </mxCell>
                <mxCell id="25" value="Business &lt;br style=&quot;font-size: 13px;&quot;&gt;applications" style="text;html=1;fontSize=13;fontStyle=1;verticalAlign=middle;align=center;fillColor=none;" vertex="1" parent="1">
                    <mxGeometry x="-60" y="90" width="100" height="40" as="geometry"/>
                </mxCell>
                <mxCell id="26" value="Systems" style="text;html=1;fontSize=13;fontStyle=1;verticalAlign=middle;align=center;fillColor=none;" vertex="1" parent="1">
                    <mxGeometry x="-50" y="360" width="100" height="40" as="geometry"/>
                </mxCell>
                <mxCell id="27" value="Earlier" style="text;html=1;fontSize=13;fontStyle=1;verticalAlign=middle;align=center;fillColor=none;" vertex="1" parent="1">
                    <mxGeometry x="50" y="450" width="50" height="20" as="geometry"/>
                </mxCell>
                <mxCell id="28" value="Later" style="text;html=1;fontSize=13;fontStyle=1;verticalAlign=middle;align=center;fillColor=none;" vertex="1" parent="1">
                    <mxGeometry x="770" y="450" width="50" height="20" as="geometry"/>
                </mxCell>
                <mxCell id="29" value="Mirroring" style="rounded=0;whiteSpace=wrap;html=1;fontSize=11;fillColor=#dae8fc;strokeColor=none;" vertex="1" parent="1">
                    <mxGeometry x="550" y="280" width="70" height="40" as="geometry"/>
                </mxCell>
                <mxCell id="30" value="Cruise Control" style="rounded=0;whiteSpace=wrap;html=1;fontSize=11;" vertex="1" parent="1">
                    <mxGeometry x="670" y="260" width="70" height="40" as="geometry"/>
                </mxCell>
                <mxCell id="31" value="Egeria | Atlas" style="rounded=0;whiteSpace=wrap;html=1;fontSize=11;" vertex="1" parent="1">
                    <mxGeometry x="750" y="260" width="70" height="40" as="geometry"/>
                </mxCell>
                <mxCell id="32" value="Event streaming applications" style="rounded=0;whiteSpace=wrap;html=1;fontSize=11;fillColor=#dae8fc;strokeColor=none;" vertex="1" parent="1">
                    <mxGeometry x="470" y="134" width="150" height="40" as="geometry"/>
                </mxCell>
            </root>
        </mxGraphModel>
    </diagram>
</mxfile>